<svg xmlns="http://www.w3.org/2000/svg" xmlns:xlink="http://www.w3.org/1999/xlink" width="135.262" height="44.805" viewBox="0 0 135.262 44.805">
  <defs>
    <style>
      .cls-1 {
        fill: url(#linear-gradient);
      }
    </style>
    <linearGradient id="linear-gradient" x1="0.079" y1="0.717" x2="0.885" y2="0.706" gradientUnits="objectBoundingBox">
      <stop offset="0" stop-color="#0a97b0"/>
      <stop offset="1" stop-color="#40c8b7"/>
    </linearGradient>
  </defs>
  <path id="Logo" class="cls-1" d="M.242,44.41A.968.968,0,0,1,0,43.744,12.885,12.885,0,0,1,1.12,40.6q2.391-5.661,3.663-8.143A142.826,142.826,0,0,1,20.192,8.6q3.723-4.662,5.146-6.054A4.092,4.092,0,0,1,27.791,1.12a1.721,1.721,0,0,1,1.181.545,1.921,1.921,0,0,1,.7,1.453,7.132,7.132,0,0,1-1.271,3,95.327,95.327,0,0,0-6.691,13.321,56.771,56.771,0,0,0-3.391,11.291q.969-1.423,4.481-6.842,3-4.632,9.566-13.351,3.815-5.056,6.9-8.476Q41.111,0,42.534,0A1.8,1.8,0,0,1,43.9.575a1.507,1.507,0,0,1,.484,1.15A7.87,7.87,0,0,1,43.14,4.964q-.242.454-2.482,4.389-4,7.085-5.419,10.111A113.5,113.5,0,0,0,29.516,33.6a19.9,19.9,0,0,0-1.059,5.116,4.949,4.949,0,0,0,.06.757q.151,1.181.151,1.393A2.429,2.429,0,0,1,28,42.5a1.669,1.669,0,0,1-1.3.7,1.6,1.6,0,0,1-1.392-1,4.129,4.129,0,0,1-.455-2.119q0-8.567,14.289-33.664Q31.666,14.41,22.584,29.3a20.9,20.9,0,0,1-3.3,4.39,3.769,3.769,0,0,1-2.422,1.12,1.8,1.8,0,0,1-1.7-1,3.172,3.172,0,0,1-.363-1.543Q14.8,24.7,23.8,8.446a53.185,53.185,0,0,0-5.873,7.236A143.36,143.36,0,0,0,8.78,31.272Q6.872,35.117,4.147,41.535,2.785,44.8,1,44.8A.92.92,0,0,1,.242,44.41ZM56.49,40.475a8.7,8.7,0,0,1-1.241-4.631q0-6.539,6.176-16.5A61.355,61.355,0,0,1,72.535,5.691q5.056-4.45,8.658-4.45a3.663,3.663,0,0,1,3.118,1.453,4.453,4.453,0,0,1,.878,2.786,14.757,14.757,0,0,1-1.967,6.691,24.415,24.415,0,0,1-4.3,5.812q-1.7,1.665-2.664,1.665a1.558,1.558,0,0,1-1.181-.635,1.533,1.533,0,0,1-.393-1.03q0-1.06,1.847-2.422a17.5,17.5,0,0,0,4.147-4.238q2.271-3.33,2.271-5.631A2.034,2.034,0,0,0,82.541,4.3a1.569,1.569,0,0,0-1.227-.454q-1.665,0-4.722,2.422a49.2,49.2,0,0,0-7.357,7.418A51.459,51.459,0,0,0,61.727,25.43a26.124,26.124,0,0,0-2.664,10.232,5.225,5.225,0,0,0,1.181,3.451,3.957,3.957,0,0,0,3.179,1.6q3.27,0,8.234-5.087a43.091,43.091,0,0,0,3.6-4.48,22.023,22.023,0,0,0,1.786-2.664q.454-.878,1.059-.878.666,0,.666.635,0,1.362-3.39,6.115a28.5,28.5,0,0,1-6.206,6.478,12.332,12.332,0,0,1-7.205,2.815A6.087,6.087,0,0,1,56.49,40.475Zm52.464-.333a4.523,4.523,0,0,1-.968-2.966q0-.606.121-2a22.923,22.923,0,0,1-1.967,2.966q-1.908,2.361-3.785,2.362a2.817,2.817,0,0,1-2.542-1.543,4.654,4.654,0,0,1-.575-2.362,16.238,16.238,0,0,1,2.119-7.417,19.586,19.586,0,0,1,5.692-6.933,7.239,7.239,0,0,1,4.208-1.574,2.994,2.994,0,0,1,2.119.787,2.133,2.133,0,0,1,.726,1.574,5.04,5.04,0,0,1-.514,1.847A2.023,2.023,0,0,1,114.04,26a5.081,5.081,0,0,1-.848,2.089,23.389,23.389,0,0,0-1.756,3.936,13.1,13.1,0,0,0-.938,4.178,2.954,2.954,0,0,0,.757,2.089,5.713,5.713,0,0,0,1.241.7,1.3,1.3,0,0,1,.757,1.272,1.179,1.179,0,0,1-.424.939,1.572,1.572,0,0,1-1.06.393A3.528,3.528,0,0,1,108.954,40.142Zm-3.754-12.2q-2.967,4.45-2.966,7.538a1.933,1.933,0,0,0,.287,1.15,1,1,0,0,0,.863.394q1.453,0,3.39-3.088a51.089,51.089,0,0,0,2.695-5,26.6,26.6,0,0,1,1.544-2.846,4.454,4.454,0,0,1,.878-.878,3.012,3.012,0,0,0-.787-.984,1.488,1.488,0,0,0-.908-.318Q107.895,23.916,105.2,27.942ZM79.952,40.6a1.529,1.529,0,0,1-.364-1.03q0-1,1.938-5.661,3.6-8.658,6.72-14.652Q91.365,13.2,95.18,6.69A12.63,12.63,0,0,1,96.6,4.571a1.5,1.5,0,0,1,1.09-.545,1.13,1.13,0,0,1,.939.575,1.627,1.627,0,0,1,.3.969,4.517,4.517,0,0,1-.968,2.271Q94.7,12.9,91.456,18.95a71.168,71.168,0,0,0-4.269,8.84,31.007,31.007,0,0,1,4.48-3.905q2.877-2,4.118-2a1.51,1.51,0,0,1,1,.424,1.462,1.462,0,0,1,.545,1.121,5.254,5.254,0,0,1-1.3,2.542,36.313,36.313,0,0,0-3.814,6.055,9.519,9.519,0,0,0-1.15,3.208q0,.818.787.817,1.635,0,5.51-5.812.787-1.181,1.423-1.181t.635.726q0,1.181-2.3,4.511a17.537,17.537,0,0,1-4.178,4.451,5.08,5.08,0,0,1-2.785,1.059,1.956,1.956,0,0,1-1.876-1.12,3.29,3.29,0,0,1-.364-1.544A13.043,13.043,0,0,1,89.821,31q.455-.817,2.725-4.662Q86.37,29.456,82.1,39.809q-.394,1.181-1.211,1.181A1.219,1.219,0,0,1,79.952,40.6Zm37.932-1.787a4.444,4.444,0,0,1-.635-2.573,21.95,21.95,0,0,1,2.119-8.537q.516-1.211,2.846-5.843a5.407,5.407,0,0,1-1.241.212,2.072,2.072,0,0,1-1.12-.3,1.239,1.239,0,0,1-.666-1.06,1.362,1.362,0,0,1,.878-1.211,14.123,14.123,0,0,1,2.24-.393,15.986,15.986,0,0,0,2.119-.576,53.774,53.774,0,0,1,3.451-5.176q1.332-1.817,1.847-2.362a1.97,1.97,0,0,1,1.272-.757,1.107,1.107,0,0,1,.787.424,1.171,1.171,0,0,1,.363.787q0,.787-1.7,3.118a28.325,28.325,0,0,0-1.665,2.453,21.361,21.361,0,0,1,4.814-.908q1.665,0,1.665,1.392a1.106,1.106,0,0,1-.575,1.029,4.88,4.88,0,0,1-1.574.3,30.124,30.124,0,0,0-4.572,1.15q-1.119.333-2.21.7a49.4,49.4,0,0,0-3.633,6.842q-2.391,5.388-2.391,8.052a1.8,1.8,0,0,0,.318,1.15,1.153,1.153,0,0,0,.954.394q1.513,0,3.663-2.846a36.567,36.567,0,0,0,2.422-3.512q.575-1,1.241-1a.905.905,0,0,1,.666.273.825.825,0,0,1,.242.545q0,1.12-2.937,5-3.511,4.663-6.418,4.662A3.077,3.077,0,0,1,117.885,38.81Zm-80.89-.242a4.594,4.594,0,0,1-.878-2.966q0-5.116,4.813-10.021,3.906-4,6.812-4a2.289,2.289,0,0,1,1.423.484,2.038,2.038,0,0,1,.787,1.665,7.8,7.8,0,0,1-1.483,3.936,15.781,15.781,0,0,1-9.2,6.691V34.9a1.981,1.981,0,0,0,.333,1.15,2.777,2.777,0,0,0,2.483,1.12q3.784,0,8.749-5.812.878-1,1.483-1a.878.878,0,0,1,.788.787q0,1.181-2.907,4a21.826,21.826,0,0,1-4.844,3.6,10.137,10.137,0,0,1-4.783,1.392A4.385,4.385,0,0,1,36.994,38.568ZM44.26,25.944A15.494,15.494,0,0,0,39.93,32a12.165,12.165,0,0,0,3.33-1.634,13.437,13.437,0,0,0,3.361-3.694,2.523,2.523,0,0,0,.454-1.3q0-.6-.575-.6A4.245,4.245,0,0,0,44.26,25.944Z"/>
</svg>
